<svg width="38" height="38" viewBox="0 0 38 38" fill="none" xmlns="http://www.w3.org/2000/svg">
<path d="M32.1686 6.5797C29.7466 5.46839 27.1494 4.64962 24.4338 4.18068C24.3844 4.17163 24.335 4.19425 24.3095 4.23948C23.9755 4.83357 23.6055 5.60861 23.3464 6.21779C20.4256 5.78052 17.5199 5.78052 14.659 6.21779C14.3999 5.59507 14.0164 4.83357 13.6809 4.23948C13.6554 4.19575 13.606 4.17314 13.5566 4.18068C10.8425 4.64812 8.2453 5.46689 5.82181 6.5797C5.80083 6.58874 5.78285 6.60384 5.77092 6.62343C0.844537 13.9833 -0.505005 21.1623 0.157035 28.2523C0.160031 28.287 0.179502 28.3202 0.206464 28.3413C3.45675 30.7282 6.6052 32.1773 9.69519 33.1378C9.74465 33.1529 9.79704 33.1348 9.82851 33.0941C10.5595 32.0959 11.211 31.0434 11.7697 29.9366C11.8026 29.8718 11.7712 29.7949 11.7038 29.7692C10.6703 29.3772 9.6862 28.8992 8.73957 28.3564C8.6647 28.3127 8.6587 28.2056 8.72758 28.1543C8.92679 28.005 9.12605 27.8497 9.31626 27.6929C9.35068 27.6642 9.39863 27.6582 9.43909 27.6763C15.658 30.5156 22.3908 30.5156 28.5363 27.6763C28.5768 27.6567 28.6248 27.6627 28.6607 27.6914C28.8509 27.8482 29.0501 28.005 29.2508 28.1543C29.3197 28.2056 29.3152 28.3127 29.2404 28.3564C28.2937 28.9097 27.3096 29.3772 26.2746 29.7677C26.2073 29.7934 26.1773 29.8718 26.2103 29.9366C26.7809 31.0419 27.4325 32.0943 28.1499 33.0926C28.1799 33.1348 28.2338 33.1529 28.2832 33.1378C31.3882 32.1773 34.5366 30.7282 37.7869 28.3413C37.8154 28.3202 37.8334 28.2885 37.8364 28.2538C38.6287 20.057 36.5093 12.9369 32.218 6.62492C32.2075 6.60384 32.1896 6.58874 32.1686 6.5797ZM12.6984 23.9353C10.826 23.9353 9.28329 22.2163 9.28329 20.1053C9.28329 17.9943 10.7961 16.2753 12.6984 16.2753C14.6155 16.2753 16.1434 18.0094 16.1134 20.1053C16.1134 22.2163 14.6006 23.9353 12.6984 23.9353ZM25.325 23.9353C23.4527 23.9353 21.91 22.2163 21.91 20.1053C21.91 17.9943 23.4228 16.2753 25.325 16.2753C27.2423 16.2753 28.77 18.0094 28.7401 20.1053C28.7401 22.2163 27.2423 23.9353 25.325 23.9353Z" fill="white"/>
</svg>
