<svg width="38" height="38" viewBox="0 0 38 38" fill="none" xmlns="http://www.w3.org/2000/svg">
<path d="M21.4343 18.7272C21.4343 24.6975 16.636 29.5373 10.7173 29.5373C4.79865 29.5373 0 24.6964 0 18.7272C0 12.758 4.79829 7.91666 10.7173 7.91666C16.6364 7.91666 21.4343 12.7569 21.4343 18.7272Z" fill="white"/>
<path d="M33.1911 18.7272C33.1911 24.347 30.7919 28.9045 27.8324 28.9045C24.8729 28.9045 22.4738 24.347 22.4738 18.7272C22.4738 13.1074 24.8725 8.54993 27.8321 8.54993C30.7916 8.54993 33.1907 13.106 33.1907 18.7272" fill="white"/>
<path d="M38 18.7272C38 23.7611 37.1564 27.8444 36.1154 27.8444C35.0744 27.8444 34.2311 23.7622 34.2311 18.7272C34.2311 13.6922 35.0747 9.60995 36.1154 9.60995C37.156 9.60995 38 13.6918 38 18.7272Z" fill="white"/>
</svg>
