<svg width="38" height="38" viewBox="0 0 38 38" fill="none" xmlns="http://www.w3.org/2000/svg">
<g clip-path="url(#clip0_1_60)">
<path d="M11.9544 34.4375C26.2905 34.4375 34.1339 22.5573 34.1339 12.258C34.1339 11.924 34.1265 11.5826 34.1117 11.2486C35.6375 10.1452 36.9542 8.77846 38 7.21262C36.579 7.84484 35.0703 8.25775 33.5254 8.43723C35.152 7.46217 36.37 5.93039 36.9535 4.12586C35.4232 5.03278 33.7497 5.67253 32.0046 6.01769C30.8288 4.76837 29.2742 3.94116 27.5812 3.66398C25.8881 3.38679 24.1509 3.67506 22.6381 4.48421C21.1253 5.29337 19.9212 6.57835 19.2119 8.14047C18.5027 9.7026 18.3278 11.4549 18.7143 13.1264C15.6156 12.9709 12.5842 12.1659 9.81664 10.7637C7.04904 9.36151 4.60701 7.39334 2.64887 4.9868C1.65363 6.7027 1.34909 8.73317 1.79713 10.6655C2.24517 12.5979 3.41218 14.2872 5.06098 15.39C3.82316 15.3507 2.61246 15.0175 1.52891 14.4178V14.5143C1.5278 16.315 2.15032 18.0605 3.29066 19.4541C4.43099 20.8477 6.01876 21.8034 7.78406 22.1588C6.63742 22.4725 5.43397 22.5182 4.26684 22.2924C4.76497 23.841 5.73416 25.1955 7.03914 26.1668C8.34412 27.138 9.91978 27.6777 11.5462 27.7104C8.78501 29.8793 5.37411 31.0558 1.86289 31.0502C1.2402 31.0492 0.618132 31.0111 0 30.9359C3.56702 33.2243 7.71642 34.4398 11.9544 34.4375Z" fill="white"/>
</g>
<defs>
<clipPath id="clip0_1_60">
<rect width="38" height="38" fill="white"/>
</clipPath>
</defs>
</svg>
