<svg width="38" height="38" viewBox="0 0 38 38" fill="none" xmlns="http://www.w3.org/2000/svg">
<g clip-path="url(#clip0_1_62)">
<path fill-rule="evenodd" clip-rule="evenodd" d="M19.0005 0.791656C14.4899 0.793997 10.1273 2.39155 6.69259 5.29865C3.25793 8.20575 0.975231 12.2328 0.252663 16.6598C-0.469905 21.0868 0.414768 25.625 2.74851 29.4629C5.08226 33.3009 8.71288 36.1883 12.9912 37.6089C13.9351 37.784 14.2906 37.1991 14.2906 36.7017C14.2906 36.2042 14.2717 34.7621 14.2654 33.1854C8.97976 34.3273 7.86286 30.9549 7.86286 30.9549C7.0008 28.7651 5.75489 28.1895 5.75489 28.1895C4.03077 27.0195 5.8839 27.0414 5.8839 27.0414C7.79365 27.1759 8.7973 28.9903 8.7973 28.9903C10.49 31.8778 13.2429 31.0425 14.3252 30.5545C14.4951 29.3313 14.989 28.4992 15.5333 28.0268C11.3111 27.5513 6.87494 25.9308 6.87494 18.6919C6.84878 16.8145 7.54942 14.999 8.8319 13.6209C8.63684 13.1454 7.98556 11.2246 9.01752 8.61559C9.01752 8.61559 10.6127 8.1088 14.2434 10.552C17.3576 9.70523 20.6433 9.70523 23.7575 10.552C27.3851 8.1088 28.9771 8.61559 28.9771 8.61559C30.0122 11.2184 29.361 13.1391 29.1659 13.6209C30.4524 14.9992 31.1545 16.8179 31.126 18.6982C31.126 25.9527 26.6804 27.5513 22.4519 28.0174C23.1314 28.6056 23.7387 29.7536 23.7387 31.518C23.7387 34.0457 23.7166 36.0791 23.7166 36.7017C23.7166 37.2053 24.0596 37.7934 25.0223 37.6089C29.3011 36.1881 32.9321 33.3002 35.2658 29.4616C37.5995 25.623 38.4837 21.0841 37.7603 16.6567C37.0369 12.2293 34.7531 8.20222 31.3173 5.29562C27.8815 2.38901 23.5178 0.792513 19.0068 0.791656H19.0005Z" fill="white"/>
<path d="M7.19535 27.9173C7.15445 28.0112 7.00343 28.0393 6.88073 27.9737C6.75802 27.908 6.66679 27.786 6.71084 27.689C6.75488 27.592 6.90276 27.567 7.02546 27.6327C7.14816 27.6984 7.24254 27.8235 7.19535 27.9173Z" fill="white"/>
<path d="M7.96615 28.7714C7.901 28.804 7.82645 28.8131 7.75529 28.7971C7.68412 28.7811 7.62075 28.7411 7.57603 28.6838C7.45332 28.5524 7.42814 28.3709 7.52253 28.2896C7.61691 28.2083 7.78682 28.2458 7.90952 28.3772C8.03223 28.5086 8.06054 28.69 7.96615 28.7714Z" fill="white"/>
<path d="M8.715 29.8569C8.59859 29.9382 8.40037 29.8569 8.29025 29.6942C8.2598 29.6651 8.23559 29.6301 8.21905 29.5914C8.20251 29.5527 8.19397 29.511 8.19397 29.469C8.19397 29.4269 8.20251 29.3853 8.21905 29.3466C8.23559 29.3079 8.2598 29.2729 8.29025 29.2438C8.40666 29.1655 8.60489 29.2438 8.715 29.4033C8.82512 29.5628 8.82827 29.7756 8.715 29.8569V29.8569Z" fill="white"/>
<path d="M9.73127 30.908C9.62744 31.0237 9.41665 30.9925 9.24361 30.836C9.07057 30.6796 9.02966 30.4669 9.13348 30.3543C9.23731 30.2417 9.4481 30.2729 9.62744 30.4262C9.80677 30.5795 9.84139 30.7954 9.73127 30.908V30.908Z" fill="white"/>
<path d="M11.1565 31.5212C11.1093 31.6682 10.8953 31.7339 10.6814 31.6713C10.4675 31.6087 10.3259 31.4336 10.3668 31.2834C10.4077 31.1332 10.6248 31.0644 10.8419 31.1332C11.059 31.2021 11.1974 31.3679 11.1565 31.5212Z" fill="white"/>
<path d="M12.7107 31.6275C12.7107 31.7808 12.5346 31.9122 12.308 31.9153C12.0815 31.9184 11.8959 31.7933 11.8959 31.64C11.8959 31.4867 12.0721 31.3553 12.2986 31.3522C12.5251 31.3491 12.7107 31.4711 12.7107 31.6275Z" fill="white"/>
<path d="M14.158 31.3866C14.1863 31.5399 14.029 31.6995 13.8024 31.737C13.5759 31.7745 13.3777 31.6838 13.3494 31.5336C13.3211 31.3835 13.4847 31.2208 13.7049 31.1802C13.9251 31.1395 14.1296 31.2333 14.158 31.3866Z" fill="white"/>
</g>
<defs>
<clipPath id="clip0_1_62">
<rect width="38" height="38" fill="white"/>
</clipPath>
</defs>
</svg>
