<svg width="38" height="38" viewBox="0 0 38 38" fill="none" xmlns="http://www.w3.org/2000/svg">
<g clip-path="url(#clip0_1_61)">
<path fill-rule="evenodd" clip-rule="evenodd" d="M38 19C38 29.4934 29.4934 38 19 38C8.50659 38 0 29.4934 0 19C0 8.50659 8.50659 0 19 0C29.4934 0 38 8.50659 38 19ZM19.6809 14.0266C17.8328 14.7953 14.1394 16.3862 8.6005 18.7994C7.70107 19.1571 7.22991 19.507 7.18702 19.8491C7.11453 20.4274 7.83863 20.6551 8.82466 20.9651C8.95879 21.0073 9.09776 21.051 9.24023 21.0973C10.2103 21.4126 11.5153 21.7816 12.1937 21.7962C12.8091 21.8095 13.4959 21.5558 14.2542 21.0351C19.4293 17.5418 22.1008 15.776 22.2685 15.738C22.3868 15.7111 22.5508 15.6773 22.6619 15.7761C22.773 15.8748 22.7621 16.0618 22.7503 16.112C22.6786 16.4178 19.8361 19.0604 18.3652 20.4278C17.9067 20.8541 17.5814 21.1565 17.515 21.2256C17.366 21.3803 17.2142 21.5266 17.0683 21.6673C16.167 22.5361 15.4912 23.1876 17.1057 24.2516C17.8816 24.7629 18.5024 25.1857 19.1218 25.6075C19.7983 26.0681 20.4729 26.5276 21.3459 27.0998C21.5683 27.2456 21.7807 27.397 21.9876 27.5445C22.7748 28.1057 23.482 28.6099 24.3558 28.5295C24.8635 28.4828 25.3879 28.0054 25.6542 26.5816C26.2837 23.2166 27.5209 15.9259 27.8068 12.9215C27.8319 12.6583 27.8004 12.3215 27.7751 12.1736C27.7498 12.0257 27.6969 11.815 27.5047 11.659C27.277 11.4743 26.9256 11.4354 26.7684 11.4381C26.0538 11.4507 24.9574 11.832 19.6809 14.0266Z" fill="white"/>
</g>
<defs>
<clipPath id="clip0_1_61">
<rect width="38" height="38" fill="white"/>
</clipPath>
</defs>
</svg>
